# xmcd
#
# Track frame offsets:
#	150
#	14708
#	36904
#	70054
#	95603
#	115199
#	133714
#	157260
#
# Disc length: 2355 seconds
#
# Revision: 1
# Processed by: cddbd v1.5.1PL0 Copyright (c) Steve Scherf et al.
# Submitted via: audiograbber 1.83.01
#
DISCID=70093108
DTITLE=Burt Conrad All Stars - A Soulful Journey
DYEAR=2005
DGENRE=Blues
TTITLE0=Kryptomeria
TTITLE1=Lost Essence
TTITLE2=Gambler's Blues
TTITLE3=Impressions
TTITLE4=Can't Get You Out Of My Mind
TTITLE5=So Hard To Say Goodbye
TTITLE6=Killing Floor
TTITLE7=Let Me Love You
EXTD=
EXTT0=
EXTT1=
EXTT2=
EXTT3=
EXTT4=
EXTT5=
EXTT6=
EXTT7=
PLAYORDER=
